<mxfile host="65bd71144e">
    <diagram id="Sh65CzMdTCBMGcKQR6Uh" name="Page-1">
        <mxGraphModel dx="392" dy="445" grid="1" gridSize="10" guides="1" tooltips="1" connect="1" arrows="1" fold="1" page="0" pageScale="1" pageWidth="1169" pageHeight="827" background="#FFFFFF" math="0" shadow="0">
            <root>
                <mxCell id="0"/>
                <mxCell id="1" parent="0"/>
                <mxCell id="11" value="" style="shape=curlyBracket;whiteSpace=wrap;html=1;rounded=1;flipH=1;labelPosition=right;verticalLabelPosition=middle;align=left;verticalAlign=middle;fillColor=none;" parent="1" vertex="1">
                    <mxGeometry x="700" y="370.5" width="20" height="201" as="geometry"/>
                </mxCell>
                <mxCell id="12" value="" style="shape=curlyBracket;whiteSpace=wrap;html=1;rounded=1;flipH=1;labelPosition=right;verticalLabelPosition=middle;align=left;verticalAlign=middle;fillColor=none;rotation=-90;" parent="1" vertex="1">
                    <mxGeometry x="540.5" y="210" width="20" height="281" as="geometry"/>
                </mxCell>
                <mxCell id="13" value="ウエルシアカード" style="rounded=0;whiteSpace=wrap;html=1;fillColor=none;" parent="1" vertex="1">
                    <mxGeometry x="570" y="371.5" width="120" height="39" as="geometry"/>
                </mxCell>
                <mxCell id="14" value="イオンカード" style="rounded=0;whiteSpace=wrap;html=1;fillColor=none;" parent="1" vertex="1">
                    <mxGeometry x="410" y="371.5" width="120" height="39" as="geometry"/>
                </mxCell>
                <mxCell id="15" value="WAON モバイル" style="rounded=0;whiteSpace=wrap;html=1;fillColor=none;" parent="1" vertex="1">
                    <mxGeometry x="570" y="531.5" width="120" height="39" as="geometry"/>
                </mxCell>
                <mxCell id="16" value="WAON カード" style="rounded=0;whiteSpace=wrap;html=1;fillColor=none;" parent="1" vertex="1">
                    <mxGeometry x="570" y="452.5" width="120" height="39" as="geometry"/>
                </mxCell>
                <mxCell id="18" value="+" style="text;html=1;align=center;verticalAlign=middle;resizable=0;points=[];autosize=1;strokeColor=none;fillColor=none;fontSize=24;" parent="1" vertex="1">
                    <mxGeometry x="610" y="410.5" width="40" height="40" as="geometry"/>
                </mxCell>
                <mxCell id="20" value="+" style="text;html=1;align=center;verticalAlign=middle;resizable=0;points=[];autosize=1;strokeColor=none;fillColor=none;fontSize=24;" parent="1" vertex="1">
                    <mxGeometry x="610" y="491.5" width="40" height="40" as="geometry"/>
                </mxCell>
                <mxCell id="21" value="&lt;font style=&quot;font-size: 11px;&quot;&gt;イオンウォレット or 暮らしのマネーサイト&lt;/font&gt;" style="text;html=1;align=center;verticalAlign=middle;resizable=0;points=[];autosize=1;strokeColor=none;fillColor=none;fontSize=24;" parent="1" vertex="1">
                    <mxGeometry x="430.5" y="301.5" width="240" height="40" as="geometry"/>
                </mxCell>
                <mxCell id="22" value="iAEON" style="text;html=1;align=center;verticalAlign=middle;resizable=0;points=[];autosize=1;strokeColor=none;fillColor=none;fontSize=11;" parent="1" vertex="1">
                    <mxGeometry x="720" y="456" width="60" height="30" as="geometry"/>
                </mxCell>
                <mxCell id="24" value="→" style="text;html=1;align=center;verticalAlign=middle;resizable=0;points=[];autosize=1;strokeColor=none;fillColor=none;fontSize=24;" parent="1" vertex="1">
                    <mxGeometry x="525.5" y="371.5" width="50" height="40" as="geometry"/>
                </mxCell>
            </root>
        </mxGraphModel>
    </diagram>
</mxfile>